<svg width="630" height="630" viewBox="0 0 630 630" fill="none" xmlns="http://www.w3.org/2000/svg">
<rect width="630" height="630" rx="90" fill="#101118"/>
<path d="M142.001 217.596C148.944 217.596 155.04 218.358 160.289 219.882C165.539 221.237 169.433 222.845 171.973 224.708L167.655 251.632C165.793 250.447 163.676 249.515 161.305 248.838C158.935 248.161 155.971 247.822 152.415 247.822C146.489 247.822 141.578 249.177 137.683 251.886C133.958 254.595 132.095 259.337 132.095 266.11V282.62L134.635 289.732V402H91.4552V263.316C91.4552 255.188 92.7252 248.245 95.2652 242.488C97.9745 236.731 101.7 231.989 106.441 228.264C111.183 224.539 116.601 221.829 122.697 220.136C128.793 218.443 135.228 217.596 142.001 217.596ZM170.703 275V305.734H71.1352V275H170.703ZM230.901 221.152V358.82C230.901 364.408 231.833 368.387 233.695 370.758C235.558 373.129 238.691 374.314 243.093 374.314C245.633 374.314 247.75 374.145 249.443 373.806C251.137 373.467 253.169 372.959 255.539 372.282L252.745 398.19C249.697 400.053 245.718 401.577 240.807 402.762C235.897 403.947 231.071 404.54 226.329 404.54C212.783 404.54 202.961 401.407 196.865 395.142C190.769 388.877 187.721 378.632 187.721 364.408V221.152H230.901ZM314.261 404.54C305.625 404.54 298.005 403.101 291.401 400.222C284.966 397.174 279.886 392.348 276.161 385.744C272.435 379.14 270.573 370.504 270.573 359.836V275H313.753V349.676C313.753 357.804 315.361 363.477 318.579 366.694C321.796 369.911 326.368 371.52 332.295 371.52C335.343 371.52 338.221 371.012 340.931 369.996C343.64 368.811 346.011 367.117 348.043 364.916C350.075 362.545 351.599 359.582 352.615 356.026C353.8 352.301 354.393 347.983 354.393 343.072V275H397.573V402H358.965L357.695 378.124C353.631 387.099 347.958 393.787 340.677 398.19C333.395 402.423 324.59 404.54 314.261 404.54ZM465.935 275L496.923 332.15L511.147 330.88L561.185 402H511.655L479.651 344.088H464.665L416.151 275H465.935ZM560.169 275L512.163 343.58L496.161 342.564L462.887 402H414.373L465.427 330.372L480.159 332.404L511.655 275H560.169Z" fill="white"/>
</svg>
